<svg xmlns="http://www.w3.org/2000/svg" xmlns:xlink="http://www.w3.org/1999/xlink" width="100" zoomAndPan="magnify" viewBox="0 0 75 74.999997" height="100" preserveAspectRatio="xMidYMid meet" version="1.0"><defs><clipPath id="0f70648a41"><path d="M 0 10.773438 L 54 10.773438 L 54 54 L 0 54 Z M 0 10.773438 " clip-rule="nonzero"/></clipPath></defs><rect x="-7.5" width="90" fill="#ffffff" y="-7.5" height="89.999996" fill-opacity="1"/><rect x="-7.5" width="90" fill="#ffffff" y="-7.5" height="89.999996" fill-opacity="1"/><path fill="#a8a7a7" d="M 17.617188 63.988281 C 17.003906 63.988281 16.394531 63.929688 15.792969 63.808594 C 15.191406 63.691406 14.609375 63.515625 14.039062 63.28125 C 13.472656 63.046875 12.9375 62.757812 12.425781 62.421875 C 11.914062 62.082031 11.445312 61.695312 11.011719 61.261719 C 10.578125 60.832031 10.1875 60.359375 9.847656 59.851562 C 9.507812 59.34375 9.21875 58.808594 8.984375 58.242188 C 8.75 57.679688 8.574219 57.097656 8.453125 56.496094 C 8.332031 55.898438 8.273438 55.292969 8.273438 54.683594 C 8.273438 54.070312 8.332031 53.464844 8.453125 52.867188 C 8.574219 52.265625 8.75 51.683594 8.984375 51.121094 C 9.21875 50.554688 9.507812 50.019531 9.847656 49.511719 C 10.1875 49.003906 10.578125 48.53125 11.011719 48.101562 C 11.445312 47.667969 11.914062 47.28125 12.425781 46.945312 C 12.9375 46.605469 13.472656 46.316406 14.039062 46.082031 C 14.609375 45.847656 15.191406 45.671875 15.792969 45.554688 C 16.394531 45.433594 17.003906 45.375 17.617188 45.375 C 18.230469 45.375 18.835938 45.433594 19.4375 45.554688 C 20.039062 45.671875 20.625 45.847656 21.191406 46.082031 C 21.757812 46.316406 22.296875 46.605469 22.804688 46.945312 C 23.316406 47.28125 23.789062 47.667969 24.222656 48.101562 C 24.65625 48.53125 25.042969 49.003906 25.382812 49.511719 C 25.722656 50.019531 26.011719 50.554688 26.246094 51.121094 C 26.480469 51.683594 26.65625 52.265625 26.777344 52.867188 C 26.898438 53.464844 26.957031 54.070312 26.957031 54.683594 C 26.957031 55.292969 26.898438 55.898438 26.777344 56.496094 C 26.65625 57.097656 26.480469 57.679688 26.246094 58.242188 C 26.011719 58.808594 25.722656 59.34375 25.382812 59.851562 C 25.042969 60.359375 24.65625 60.832031 24.222656 61.261719 C 23.789062 61.695312 23.316406 62.082031 22.804688 62.421875 C 22.296875 62.757812 21.757812 63.046875 21.191406 63.28125 C 20.625 63.515625 20.039062 63.691406 19.4375 63.808594 C 18.835938 63.929688 18.230469 63.988281 17.617188 63.988281 Z M 17.617188 50.691406 C 17.351562 50.691406 17.09375 50.71875 16.835938 50.769531 C 16.578125 50.820312 16.328125 50.898438 16.082031 50.996094 C 15.839844 51.097656 15.609375 51.21875 15.390625 51.367188 C 15.171875 51.511719 14.96875 51.675781 14.785156 51.863281 C 14.597656 52.046875 14.433594 52.25 14.285156 52.464844 C 14.140625 52.683594 14.015625 52.914062 13.917969 53.15625 C 13.816406 53.398438 13.742188 53.648438 13.6875 53.902344 C 13.636719 54.160156 13.613281 54.417969 13.613281 54.683594 C 13.613281 54.945312 13.636719 55.203125 13.6875 55.460938 C 13.742188 55.71875 13.816406 55.964844 13.917969 56.207031 C 14.015625 56.449219 14.140625 56.679688 14.285156 56.898438 C 14.433594 57.117188 14.597656 57.316406 14.785156 57.503906 C 14.96875 57.6875 15.171875 57.851562 15.390625 58 C 15.609375 58.144531 15.839844 58.265625 16.082031 58.367188 C 16.328125 58.46875 16.578125 58.542969 16.835938 58.59375 C 17.09375 58.644531 17.351562 58.671875 17.617188 58.671875 C 17.878906 58.671875 18.140625 58.644531 18.398438 58.59375 C 18.65625 58.542969 18.90625 58.46875 19.148438 58.367188 C 19.390625 58.265625 19.621094 58.144531 19.839844 58 C 20.058594 57.851562 20.261719 57.6875 20.445312 57.503906 C 20.632812 57.316406 20.796875 57.117188 20.945312 56.898438 C 21.089844 56.679688 21.214844 56.449219 21.316406 56.207031 C 21.414062 55.964844 21.492188 55.71875 21.542969 55.460938 C 21.59375 55.203125 21.621094 54.945312 21.621094 54.683594 C 21.621094 54.417969 21.59375 54.160156 21.542969 53.902344 C 21.492188 53.648438 21.414062 53.398438 21.316406 53.15625 C 21.214844 52.914062 21.089844 52.683594 20.945312 52.464844 C 20.796875 52.25 20.632812 52.046875 20.445312 51.863281 C 20.261719 51.675781 20.058594 51.511719 19.839844 51.367188 C 19.621094 51.21875 19.390625 51.097656 19.148438 50.996094 C 18.90625 50.898438 18.65625 50.820312 18.398438 50.769531 C 18.140625 50.71875 17.878906 50.691406 17.617188 50.691406 Z M 17.617188 50.691406 " fill-opacity="1" fill-rule="nonzero"/><path fill="#a8a7a7" d="M 57.652344 63.988281 C 57.039062 63.988281 56.429688 63.929688 55.828125 63.808594 C 55.226562 63.691406 54.644531 63.515625 54.078125 63.28125 C 53.507812 63.046875 52.972656 62.757812 52.460938 62.421875 C 51.953125 62.082031 51.480469 61.695312 51.046875 61.261719 C 50.613281 60.832031 50.226562 60.359375 49.882812 59.851562 C 49.542969 59.34375 49.253906 58.808594 49.019531 58.242188 C 48.785156 57.679688 48.609375 57.097656 48.488281 56.496094 C 48.371094 55.898438 48.308594 55.292969 48.308594 54.683594 C 48.308594 54.070312 48.371094 53.464844 48.488281 52.867188 C 48.609375 52.265625 48.785156 51.683594 49.019531 51.121094 C 49.253906 50.554688 49.542969 50.019531 49.882812 49.511719 C 50.226562 49.003906 50.613281 48.53125 51.046875 48.101562 C 51.480469 47.667969 51.953125 47.28125 52.460938 46.945312 C 52.972656 46.605469 53.507812 46.316406 54.078125 46.082031 C 54.644531 45.847656 55.226562 45.671875 55.828125 45.554688 C 56.429688 45.433594 57.039062 45.375 57.652344 45.375 C 58.265625 45.375 58.871094 45.433594 59.472656 45.554688 C 60.074219 45.671875 60.660156 45.847656 61.226562 46.082031 C 61.792969 46.316406 62.332031 46.605469 62.839844 46.945312 C 63.351562 47.28125 63.824219 47.667969 64.257812 48.101562 C 64.691406 48.53125 65.078125 49.003906 65.417969 49.511719 C 65.757812 50.019531 66.046875 50.554688 66.28125 51.121094 C 66.515625 51.683594 66.695312 52.265625 66.8125 52.867188 C 66.933594 53.464844 66.992188 54.070312 66.992188 54.683594 C 66.992188 55.292969 66.933594 55.898438 66.8125 56.496094 C 66.695312 57.097656 66.515625 57.679688 66.28125 58.242188 C 66.046875 58.808594 65.757812 59.34375 65.417969 59.851562 C 65.078125 60.359375 64.691406 60.832031 64.257812 61.261719 C 63.824219 61.695312 63.351562 62.082031 62.839844 62.421875 C 62.332031 62.757812 61.792969 63.046875 61.226562 63.28125 C 60.660156 63.515625 60.074219 63.691406 59.472656 63.808594 C 58.871094 63.929688 58.265625 63.988281 57.652344 63.988281 Z M 57.652344 50.691406 C 57.386719 50.691406 57.128906 50.71875 56.871094 50.769531 C 56.613281 50.820312 56.363281 50.898438 56.121094 50.996094 C 55.875 51.097656 55.644531 51.21875 55.425781 51.367188 C 55.207031 51.511719 55.007812 51.675781 54.820312 51.863281 C 54.632812 52.046875 54.46875 52.25 54.324219 52.464844 C 54.175781 52.683594 54.054688 52.914062 53.953125 53.15625 C 53.851562 53.398438 53.777344 53.648438 53.726562 53.902344 C 53.671875 54.160156 53.648438 54.417969 53.648438 54.683594 C 53.648438 54.945312 53.671875 55.203125 53.726562 55.460938 C 53.777344 55.71875 53.851562 55.964844 53.953125 56.207031 C 54.054688 56.449219 54.175781 56.679688 54.324219 56.898438 C 54.46875 57.117188 54.632812 57.316406 54.820312 57.503906 C 55.007812 57.6875 55.207031 57.851562 55.425781 58 C 55.644531 58.144531 55.875 58.265625 56.121094 58.367188 C 56.363281 58.46875 56.613281 58.542969 56.871094 58.59375 C 57.128906 58.644531 57.386719 58.671875 57.652344 58.671875 C 57.914062 58.671875 58.175781 58.644531 58.433594 58.59375 C 58.691406 58.542969 58.941406 58.46875 59.183594 58.367188 C 59.425781 58.265625 59.65625 58.144531 59.875 58 C 60.09375 57.851562 60.296875 57.6875 60.480469 57.503906 C 60.667969 57.316406 60.835938 57.117188 60.980469 56.898438 C 61.125 56.679688 61.25 56.449219 61.351562 56.207031 C 61.449219 55.964844 61.527344 55.71875 61.578125 55.460938 C 61.628906 55.203125 61.65625 54.945312 61.65625 54.683594 C 61.65625 54.417969 61.628906 54.160156 61.578125 53.902344 C 61.527344 53.648438 61.449219 53.398438 61.351562 53.15625 C 61.25 52.914062 61.125 52.683594 60.980469 52.464844 C 60.835938 52.25 60.667969 52.046875 60.480469 51.863281 C 60.296875 51.675781 60.09375 51.511719 59.875 51.367188 C 59.65625 51.21875 59.425781 51.097656 59.183594 50.996094 C 58.941406 50.898438 58.691406 50.820312 58.433594 50.769531 C 58.175781 50.71875 57.914062 50.691406 57.652344 50.691406 Z M 57.652344 50.691406 " fill-opacity="1" fill-rule="nonzero"/><g clip-path="url(#0f70648a41)"><path fill="#a8a7a7" d="M 42.972656 53.351562 L 34.644531 53.351562 C 34.289062 53.351562 33.949219 53.285156 33.621094 53.148438 C 33.296875 53.015625 33.007812 52.824219 32.757812 52.574219 C 32.507812 52.324219 32.3125 52.035156 32.179688 51.710938 C 32.042969 51.386719 31.976562 51.046875 31.976562 50.691406 C 31.976562 50.339844 32.042969 50 32.179688 49.675781 C 32.3125 49.351562 32.507812 49.0625 32.757812 48.8125 C 33.007812 48.5625 33.296875 48.371094 33.621094 48.238281 C 33.949219 48.101562 34.289062 48.035156 34.644531 48.035156 L 40.808594 48.035156 L 47.667969 16.125 L 12.972656 16.125 L 6.246094 48.035156 L 8.035156 48.035156 C 8.386719 48.035156 8.726562 48.101562 9.054688 48.238281 C 9.382812 48.371094 9.671875 48.5625 9.921875 48.8125 C 10.171875 49.0625 10.363281 49.351562 10.5 49.675781 C 10.636719 50 10.703125 50.339844 10.703125 50.691406 C 10.703125 51.046875 10.636719 51.386719 10.5 51.710938 C 10.363281 52.035156 10.171875 52.324219 9.921875 52.574219 C 9.671875 52.824219 9.382812 53.015625 9.054688 53.148438 C 8.726562 53.285156 8.386719 53.351562 8.035156 53.351562 L 2.9375 53.351562 C 2.734375 53.355469 2.535156 53.339844 2.335938 53.296875 C 2.140625 53.257812 1.949219 53.195312 1.765625 53.113281 C 1.582031 53.027344 1.410156 52.925781 1.25 52.804688 C 1.089844 52.679688 0.949219 52.542969 0.820312 52.386719 C 0.691406 52.234375 0.582031 52.066406 0.492188 51.886719 C 0.398438 51.707031 0.332031 51.519531 0.285156 51.324219 C 0.234375 51.128906 0.210938 50.929688 0.207031 50.730469 C 0.203125 50.53125 0.222656 50.332031 0.265625 50.132812 L 8.273438 12.90625 C 8.339844 12.605469 8.453125 12.324219 8.617188 12.058594 C 8.78125 11.796875 8.984375 11.570312 9.230469 11.378906 C 9.472656 11.1875 9.742188 11.042969 10.035156 10.945312 C 10.332031 10.84375 10.632812 10.800781 10.941406 10.808594 L 50.980469 10.808594 C 51.179688 10.800781 51.378906 10.820312 51.578125 10.859375 C 51.773438 10.902344 51.964844 10.964844 52.148438 11.046875 C 52.332031 11.128906 52.503906 11.234375 52.664062 11.355469 C 52.824219 11.476562 52.96875 11.617188 53.09375 11.769531 C 53.222656 11.925781 53.332031 12.09375 53.425781 12.273438 C 53.515625 12.453125 53.582031 12.640625 53.632812 12.835938 C 53.679688 13.03125 53.703125 13.226562 53.707031 13.429688 C 53.710938 13.628906 53.691406 13.828125 53.648438 14.023438 L 45.640625 51.25 C 45.574219 51.554688 45.460938 51.835938 45.296875 52.097656 C 45.132812 52.363281 44.929688 52.589844 44.683594 52.78125 C 44.441406 52.972656 44.171875 53.117188 43.878906 53.214844 C 43.585938 53.3125 43.28125 53.359375 42.972656 53.351562 Z M 42.972656 53.351562 " fill-opacity="1" fill-rule="nonzero"/></g><path fill="#a8a7a7" d="M 34.617188 53.351562 L 22.953125 53.351562 C 22.601562 53.351562 22.257812 53.285156 21.933594 53.148438 C 21.605469 53.015625 21.316406 52.824219 21.066406 52.574219 C 20.816406 52.324219 20.625 52.035156 20.488281 51.710938 C 20.351562 51.386719 20.285156 51.046875 20.285156 50.691406 C 20.285156 50.339844 20.351562 50 20.488281 49.675781 C 20.625 49.351562 20.816406 49.0625 21.066406 48.8125 C 21.316406 48.5625 21.605469 48.371094 21.933594 48.238281 C 22.257812 48.101562 22.601562 48.035156 22.953125 48.035156 L 34.617188 48.035156 C 34.972656 48.035156 35.3125 48.101562 35.640625 48.238281 C 35.964844 48.371094 36.253906 48.5625 36.503906 48.8125 C 36.753906 49.0625 36.949219 49.351562 37.082031 49.675781 C 37.21875 50 37.285156 50.339844 37.285156 50.691406 C 37.285156 51.046875 37.21875 51.386719 37.082031 51.710938 C 36.949219 52.035156 36.753906 52.324219 36.503906 52.574219 C 36.253906 52.824219 35.964844 53.015625 35.640625 53.148438 C 35.3125 53.285156 34.972656 53.351562 34.617188 53.351562 Z M 34.617188 53.351562 " fill-opacity="1" fill-rule="nonzero"/><path fill="#a8a7a7" d="M 12.277344 53.351562 L 8.035156 53.351562 C 7.679688 53.351562 7.339844 53.285156 7.011719 53.148438 C 6.683594 53.015625 6.398438 52.824219 6.148438 52.574219 C 5.894531 52.324219 5.703125 52.035156 5.566406 51.710938 C 5.433594 51.386719 5.363281 51.046875 5.363281 50.691406 C 5.363281 50.339844 5.433594 50 5.566406 49.675781 C 5.703125 49.351562 5.894531 49.0625 6.148438 48.8125 C 6.398438 48.5625 6.683594 48.371094 7.011719 48.238281 C 7.339844 48.101562 7.679688 48.035156 8.035156 48.035156 L 12.277344 48.035156 C 12.632812 48.035156 12.972656 48.101562 13.300781 48.238281 C 13.625 48.371094 13.914062 48.5625 14.164062 48.8125 C 14.414062 49.0625 14.609375 49.351562 14.742188 49.675781 C 14.878906 50 14.945312 50.339844 14.945312 50.691406 C 14.945312 51.046875 14.878906 51.386719 14.742188 51.710938 C 14.609375 52.035156 14.414062 52.324219 14.164062 52.574219 C 13.914062 52.824219 13.625 53.015625 13.300781 53.148438 C 12.972656 53.285156 12.632812 53.351562 12.277344 53.351562 Z M 12.277344 53.351562 " fill-opacity="1" fill-rule="nonzero"/><path fill="#a8a7a7" d="M 69.660156 53.351562 L 62.988281 53.351562 C 62.636719 53.351562 62.292969 53.285156 61.96875 53.148438 C 61.640625 53.015625 61.351562 52.824219 61.101562 52.574219 C 60.851562 52.324219 60.660156 52.035156 60.523438 51.710938 C 60.386719 51.386719 60.320312 51.046875 60.320312 50.691406 C 60.320312 50.339844 60.386719 50 60.523438 49.675781 C 60.660156 49.351562 60.851562 49.0625 61.101562 48.8125 C 61.351562 48.5625 61.640625 48.371094 61.96875 48.238281 C 62.292969 48.101562 62.636719 48.035156 62.988281 48.035156 L 67.394531 48.035156 L 69.5 35.484375 L 60.375 24.101562 L 51.378906 24.101562 L 46.28125 48.035156 L 52.3125 48.035156 C 52.667969 48.035156 53.007812 48.101562 53.335938 48.238281 C 53.660156 48.371094 53.949219 48.5625 54.199219 48.8125 C 54.449219 49.0625 54.644531 49.351562 54.777344 49.675781 C 54.914062 50 54.980469 50.339844 54.980469 50.691406 C 54.980469 51.046875 54.914062 51.386719 54.777344 51.710938 C 54.644531 52.035156 54.449219 52.324219 54.199219 52.574219 C 53.949219 52.824219 53.660156 53.015625 53.335938 53.148438 C 53.007812 53.285156 52.667969 53.351562 52.3125 53.351562 L 42.972656 53.351562 C 42.769531 53.355469 42.570312 53.339844 42.375 53.296875 C 42.175781 53.257812 41.984375 53.195312 41.800781 53.113281 C 41.617188 53.027344 41.445312 52.925781 41.285156 52.804688 C 41.128906 52.679688 40.984375 52.542969 40.855469 52.386719 C 40.726562 52.234375 40.617188 52.066406 40.527344 51.886719 C 40.4375 51.707031 40.367188 51.519531 40.320312 51.324219 C 40.269531 51.128906 40.246094 50.929688 40.242188 50.730469 C 40.242188 50.53125 40.261719 50.332031 40.300781 50.132812 L 46.546875 21.042969 C 46.613281 20.742188 46.726562 20.460938 46.890625 20.195312 C 47.054688 19.933594 47.257812 19.707031 47.503906 19.515625 C 47.746094 19.324219 48.015625 19.179688 48.308594 19.082031 C 48.605469 18.980469 48.90625 18.9375 49.21875 18.945312 L 61.65625 18.785156 C 62.066406 18.78125 62.457031 18.871094 62.824219 19.046875 C 63.195312 19.222656 63.507812 19.472656 63.761719 19.792969 L 74.441406 33.089844 C 74.933594 33.699219 75.121094 34.390625 75 35.164062 L 72.332031 51.117188 C 72.28125 51.433594 72.175781 51.730469 72.015625 52.007812 C 71.859375 52.285156 71.65625 52.523438 71.414062 52.730469 C 71.167969 52.933594 70.894531 53.089844 70.59375 53.199219 C 70.292969 53.304688 69.980469 53.355469 69.660156 53.351562 Z M 69.660156 53.351562 " fill-opacity="1" fill-rule="nonzero"/><path fill="#a8a7a7" d="M 32.296875 24.101562 L 2.9375 24.101562 C 2.582031 24.101562 2.242188 24.035156 1.914062 23.898438 C 1.585938 23.765625 1.300781 23.574219 1.046875 23.324219 C 0.796875 23.074219 0.605469 22.785156 0.46875 22.460938 C 0.335938 22.136719 0.265625 21.796875 0.265625 21.441406 C 0.265625 21.089844 0.335938 20.75 0.46875 20.425781 C 0.605469 20.101562 0.796875 19.8125 1.046875 19.5625 C 1.300781 19.3125 1.585938 19.121094 1.914062 18.988281 C 2.242188 18.851562 2.582031 18.785156 2.9375 18.785156 L 32.296875 18.785156 C 32.648438 18.785156 32.988281 18.851562 33.316406 18.988281 C 33.644531 19.121094 33.933594 19.3125 34.183594 19.5625 C 34.433594 19.8125 34.625 20.101562 34.761719 20.425781 C 34.898438 20.75 34.964844 21.089844 34.964844 21.441406 C 34.964844 21.796875 34.898438 22.136719 34.761719 22.460938 C 34.625 22.785156 34.433594 23.074219 34.183594 23.324219 C 33.933594 23.574219 33.644531 23.765625 33.316406 23.898438 C 32.988281 24.035156 32.648438 24.101562 32.296875 24.101562 Z M 32.296875 24.101562 " fill-opacity="1" fill-rule="nonzero"/><path fill="#a8a7a7" d="M 29.625 32.078125 L 2.9375 32.078125 C 2.582031 32.078125 2.242188 32.011719 1.914062 31.878906 C 1.585938 31.742188 1.300781 31.550781 1.046875 31.300781 C 0.796875 31.050781 0.605469 30.765625 0.46875 30.4375 C 0.335938 30.113281 0.265625 29.773438 0.265625 29.421875 C 0.265625 29.066406 0.335938 28.730469 0.46875 28.402344 C 0.605469 28.078125 0.796875 27.789062 1.046875 27.539062 C 1.300781 27.289062 1.585938 27.097656 1.914062 26.964844 C 2.242188 26.828125 2.582031 26.761719 2.9375 26.761719 L 29.625 26.761719 C 29.980469 26.761719 30.320312 26.828125 30.648438 26.964844 C 30.976562 27.097656 31.261719 27.289062 31.511719 27.539062 C 31.765625 27.789062 31.957031 28.078125 32.09375 28.402344 C 32.226562 28.730469 32.296875 29.066406 32.296875 29.421875 C 32.296875 29.773438 32.226562 30.113281 32.09375 30.4375 C 31.957031 30.765625 31.765625 31.050781 31.511719 31.300781 C 31.261719 31.550781 30.976562 31.742188 30.648438 31.878906 C 30.320312 32.011719 29.980469 32.078125 29.625 32.078125 Z M 29.625 32.078125 " fill-opacity="1" fill-rule="nonzero"/><path fill="#a8a7a7" d="M 26.957031 40.058594 L 2.9375 40.058594 C 2.582031 40.058594 2.242188 39.988281 1.914062 39.855469 C 1.585938 39.71875 1.300781 39.527344 1.046875 39.277344 C 0.796875 39.027344 0.605469 38.742188 0.46875 38.414062 C 0.335938 38.089844 0.265625 37.75 0.265625 37.398438 C 0.265625 37.046875 0.335938 36.707031 0.46875 36.378906 C 0.605469 36.054688 0.796875 35.765625 1.046875 35.515625 C 1.300781 35.269531 1.585938 35.074219 1.914062 34.941406 C 2.242188 34.804688 2.582031 34.738281 2.9375 34.738281 L 26.957031 34.738281 C 27.3125 34.738281 27.652344 34.804688 27.980469 34.941406 C 28.304688 35.074219 28.59375 35.269531 28.84375 35.515625 C 29.09375 35.765625 29.289062 36.054688 29.421875 36.378906 C 29.558594 36.707031 29.625 37.046875 29.625 37.398438 C 29.625 37.75 29.558594 38.089844 29.421875 38.414062 C 29.289062 38.742188 29.09375 39.027344 28.84375 39.277344 C 28.59375 39.527344 28.304688 39.71875 27.980469 39.855469 C 27.652344 39.988281 27.3125 40.058594 26.957031 40.058594 Z M 26.957031 40.058594 " fill-opacity="1" fill-rule="nonzero"/><path fill="#a8a7a7" d="M 56.316406 32.078125 L 48.308594 32.078125 C 47.957031 32.078125 47.613281 32.011719 47.289062 31.878906 C 46.960938 31.742188 46.671875 31.550781 46.421875 31.300781 C 46.171875 31.050781 45.980469 30.765625 45.84375 30.4375 C 45.707031 30.113281 45.640625 29.773438 45.640625 29.421875 C 45.640625 29.066406 45.707031 28.730469 45.84375 28.402344 C 45.980469 28.078125 46.171875 27.789062 46.421875 27.539062 C 46.671875 27.289062 46.960938 27.097656 47.289062 26.964844 C 47.613281 26.828125 47.957031 26.761719 48.308594 26.761719 L 56.316406 26.761719 C 56.671875 26.761719 57.011719 26.828125 57.339844 26.964844 C 57.664062 27.097656 57.953125 27.289062 58.203125 27.539062 C 58.453125 27.789062 58.648438 28.078125 58.78125 28.402344 C 58.917969 28.730469 58.984375 29.066406 58.984375 29.421875 C 58.984375 29.773438 58.917969 30.113281 58.78125 30.4375 C 58.648438 30.765625 58.453125 31.050781 58.203125 31.300781 C 57.953125 31.550781 57.664062 31.742188 57.339844 31.878906 C 57.011719 32.011719 56.671875 32.078125 56.316406 32.078125 Z M 56.316406 32.078125 " fill-opacity="1" fill-rule="nonzero"/></svg>