<svg xmlns="http://www.w3.org/2000/svg" xmlns:xlink="http://www.w3.org/1999/xlink" width="100" zoomAndPan="magnify" viewBox="0 0 75 74.999997" height="100" preserveAspectRatio="xMidYMid meet" version="1.0"><defs><clipPath id="26187b3619"><path d="M 52 12 L 71.484375 12 L 71.484375 32 L 52 32 Z M 52 12 " clip-rule="nonzero"/></clipPath><clipPath id="0f5a4f3f43"><path d="M 3.234375 49 L 18 49 L 18 75 L 3.234375 75 Z M 3.234375 49 " clip-rule="nonzero"/></clipPath></defs><rect x="-7.5" width="90" fill="#ffffff" y="-7.5" height="89.999996" fill-opacity="1"/><rect x="-7.5" width="90" fill="#ffffff" y="-7.5" height="89.999996" fill-opacity="1"/><path fill="#a8a7a7" d="M 24.820312 31.09375 C 24.726562 31.09375 24.636719 31.078125 24.550781 31.042969 L 19.390625 28.957031 L 14.230469 31.042969 C 13.984375 31.140625 13.753906 31.113281 13.542969 30.960938 C 13.328125 30.804688 13.230469 30.59375 13.246094 30.328125 L 13.632812 24.753906 L 10.054688 20.46875 C 9.976562 20.375 9.925781 20.265625 9.902344 20.144531 C 9.878906 20.023438 9.882812 19.902344 9.921875 19.785156 C 9.960938 19.667969 10.023438 19.566406 10.117188 19.480469 C 10.207031 19.398438 10.308594 19.339844 10.429688 19.308594 L 15.828125 17.953125 L 18.78125 13.21875 C 18.847656 13.113281 18.933594 13.027344 19.042969 12.96875 C 19.148438 12.90625 19.265625 12.878906 19.390625 12.878906 C 19.511719 12.878906 19.628906 12.90625 19.738281 12.96875 C 19.84375 13.027344 19.933594 13.113281 19.996094 13.21875 L 22.949219 17.953125 L 28.34375 19.308594 C 28.464844 19.339844 28.570312 19.398438 28.660156 19.480469 C 28.75 19.566406 28.8125 19.667969 28.851562 19.785156 C 28.890625 19.902344 28.898438 20.023438 28.875 20.144531 C 28.851562 20.265625 28.800781 20.375 28.71875 20.46875 L 25.144531 24.753906 L 25.527344 30.328125 C 25.539062 30.535156 25.472656 30.710938 25.335938 30.863281 C 25.195312 31.011719 25.023438 31.089844 24.820312 31.09375 Z M 24.820312 31.09375 " fill-opacity="1" fill-rule="nonzero"/><g clip-path="url(#26187b3619)"><path fill="#a8a7a7" d="M 67.390625 31.09375 C 67.296875 31.09375 67.207031 31.078125 67.121094 31.042969 L 61.960938 28.957031 L 56.800781 31.042969 C 56.554688 31.140625 56.324219 31.113281 56.113281 30.957031 C 55.898438 30.804688 55.800781 30.59375 55.820312 30.328125 L 56.203125 24.753906 L 52.625 20.46875 C 52.546875 20.375 52.496094 20.265625 52.472656 20.144531 C 52.449219 20.023438 52.457031 19.902344 52.492188 19.785156 C 52.53125 19.667969 52.597656 19.566406 52.6875 19.480469 C 52.777344 19.398438 52.882812 19.339844 53 19.308594 L 58.398438 17.953125 L 61.351562 13.21875 C 61.417969 13.113281 61.503906 13.027344 61.613281 12.96875 C 61.71875 12.90625 61.835938 12.878906 61.960938 12.878906 C 62.082031 12.878906 62.199219 12.90625 62.308594 12.96875 C 62.417969 13.027344 62.503906 13.113281 62.566406 13.21875 L 65.519531 17.953125 L 70.917969 19.308594 C 71.039062 19.339844 71.144531 19.398438 71.234375 19.480469 C 71.324219 19.566406 71.390625 19.667969 71.425781 19.785156 C 71.464844 19.902344 71.472656 20.023438 71.449219 20.144531 C 71.425781 20.265625 71.375 20.375 71.292969 20.46875 L 67.71875 24.753906 L 68.101562 30.328125 C 68.109375 30.53125 68.042969 30.710938 67.90625 30.859375 C 67.765625 31.011719 67.59375 31.089844 67.390625 31.09375 Z M 67.390625 31.09375 " fill-opacity="1" fill-rule="nonzero"/></g><path fill="#a8a7a7" d="M 46.8125 20.480469 C 46.71875 20.484375 46.628906 20.464844 46.542969 20.433594 L 40.679688 18.058594 L 34.804688 20.433594 C 34.558594 20.53125 34.332031 20.5 34.117188 20.347656 C 33.902344 20.191406 33.804688 19.980469 33.824219 19.714844 L 34.261719 13.375 L 30.195312 8.503906 C 30.117188 8.410156 30.066406 8.300781 30.042969 8.179688 C 30.019531 8.058594 30.027344 7.941406 30.0625 7.824219 C 30.101562 7.703125 30.167969 7.605469 30.257812 7.519531 C 30.347656 7.433594 30.453125 7.378906 30.570312 7.347656 L 36.710938 5.804688 L 40.066406 0.417969 C 40.132812 0.3125 40.21875 0.230469 40.328125 0.167969 C 40.4375 0.109375 40.550781 0.078125 40.675781 0.078125 C 40.800781 0.078125 40.914062 0.109375 41.023438 0.167969 C 41.132812 0.230469 41.21875 0.3125 41.285156 0.417969 L 44.640625 5.804688 L 50.78125 7.347656 C 50.902344 7.378906 51.007812 7.433594 51.097656 7.519531 C 51.1875 7.605469 51.25 7.707031 51.289062 7.824219 C 51.328125 7.941406 51.332031 8.058594 51.308594 8.183594 C 51.285156 8.304688 51.234375 8.410156 51.15625 8.507812 L 47.09375 13.375 L 47.527344 19.71875 C 47.539062 19.921875 47.472656 20.101562 47.332031 20.25 C 47.191406 20.402344 47.019531 20.480469 46.8125 20.480469 Z M 46.8125 20.480469 " fill-opacity="1" fill-rule="nonzero"/><path fill="#a8a7a7" d="M 19.945312 49.71875 L 19.945312 74.875 L 21.417969 74.875 C 21.746094 74.875 22.0625 74.8125 22.367188 74.6875 C 22.667969 74.558594 22.9375 74.378906 23.167969 74.148438 C 23.402344 73.914062 23.578125 73.644531 23.707031 73.339844 C 23.832031 73.035156 23.894531 72.71875 23.894531 72.390625 L 23.894531 49.71875 Z M 19.945312 49.71875 " fill-opacity="1" fill-rule="nonzero"/><g clip-path="url(#0f5a4f3f43)"><path fill="#a8a7a7" d="M 3.257812 49.71875 L 3.257812 74.875 L 17.085938 74.875 L 17.085938 49.71875 Z M 11.183594 69.78125 C 11.046875 69.914062 10.894531 70.019531 10.71875 70.089844 C 10.542969 70.164062 10.359375 70.199219 10.171875 70.199219 C 9.980469 70.199219 9.796875 70.164062 9.625 70.089844 C 9.449219 70.019531 9.292969 69.914062 9.160156 69.78125 C 9.023438 69.644531 8.921875 69.488281 8.847656 69.3125 C 8.777344 69.136719 8.738281 68.953125 8.738281 68.765625 C 8.738281 68.574219 8.777344 68.390625 8.847656 68.214844 C 8.921875 68.039062 9.023438 67.882812 9.160156 67.75 C 9.292969 67.613281 9.449219 67.511719 9.625 67.4375 C 9.796875 67.363281 9.980469 67.328125 10.171875 67.328125 C 10.359375 67.328125 10.542969 67.363281 10.71875 67.4375 C 10.894531 67.511719 11.046875 67.613281 11.183594 67.75 C 11.316406 67.882812 11.421875 68.039062 11.492188 68.214844 C 11.566406 68.390625 11.601562 68.574219 11.601562 68.765625 C 11.601562 68.953125 11.566406 69.136719 11.492188 69.3125 C 11.421875 69.488281 11.316406 69.644531 11.183594 69.78125 Z M 11.183594 69.78125 " fill-opacity="1" fill-rule="nonzero"/></g><path fill="#a8a7a7" d="M 44.332031 74.714844 C 39.363281 74.714844 32.449219 74.28125 27.71875 72.242188 C 27.71875 72.242188 27.039062 72.109375 26.753906 72.089844 L 26.753906 49.390625 C 28.292969 48.613281 29.472656 47.464844 30.296875 45.945312 C 31.101562 44.570312 32.113281 43.375 33.335938 42.355469 C 35.316406 40.546875 37.367188 38.675781 39.445312 31.46875 C 39.796875 30.347656 40.5 29.53125 41.550781 29.015625 C 41.960938 28.851562 42.382812 28.785156 42.820312 28.816406 C 43.257812 28.84375 43.667969 28.96875 44.050781 29.1875 C 46.101562 30.28125 46.289062 33.328125 46.304688 36.097656 C 46.394531 38.660156 46.082031 41.171875 45.359375 43.632812 L 44.726562 45.519531 L 57.757812 45.519531 C 58.234375 45.511719 58.695312 45.585938 59.144531 45.75 C 59.59375 45.914062 59.996094 46.152344 60.355469 46.464844 C 60.714844 46.777344 61.007812 47.148438 61.230469 47.570312 C 61.453125 47.992188 61.59375 48.441406 61.652344 48.914062 C 61.722656 49.699219 61.558594 50.429688 61.167969 51.113281 L 60.300781 52.636719 L 61.957031 53.191406 C 62.335938 53.304688 62.6875 53.476562 63.007812 53.703125 C 63.332031 53.929688 63.609375 54.199219 63.847656 54.519531 C 64.082031 54.835938 64.261719 55.179688 64.390625 55.554688 C 64.515625 55.933594 64.578125 56.316406 64.582031 56.714844 C 64.582031 57.109375 64.523438 57.496094 64.402344 57.871094 C 64.28125 58.25 64.105469 58.597656 63.871094 58.917969 C 63.640625 59.234375 63.363281 59.511719 63.042969 59.742188 C 62.722656 59.972656 62.375 60.148438 62 60.265625 L 60.324219 60.800781 L 61.183594 62.339844 C 61.5625 63.011719 61.714844 63.734375 61.648438 64.507812 C 61.601562 64.910156 61.492188 65.300781 61.320312 65.671875 C 61.152344 66.042969 60.925781 66.378906 60.648438 66.675781 C 60.371094 66.972656 60.050781 67.222656 59.695312 67.417969 C 59.335938 67.613281 58.957031 67.746094 58.558594 67.820312 L 56.785156 68.179688 L 57.539062 69.828125 C 57.785156 70.363281 57.882812 70.925781 57.832031 71.511719 C 57.78125 71.933594 57.65625 72.335938 57.457031 72.710938 C 57.257812 73.085938 57 73.414062 56.679688 73.691406 C 56.359375 73.96875 56 74.179688 55.605469 74.328125 C 55.207031 74.472656 54.796875 74.539062 54.371094 74.53125 L 49.855469 74.53125 C 48.152344 74.648438 46.207031 74.714844 44.332031 74.714844 Z M 44.332031 74.714844 " fill-opacity="1" fill-rule="nonzero"/></svg>