<svg xmlns="http://www.w3.org/2000/svg" xmlns:xlink="http://www.w3.org/1999/xlink" width="100" zoomAndPan="magnify" viewBox="0 0 75 74.999997" height="100" preserveAspectRatio="xMidYMid meet" version="1.0"><defs><clipPath id="3012b3d1c1"><path d="M 29.410156 12.480469 L 54.160156 12.480469 L 54.160156 37.230469 L 29.410156 37.230469 Z M 29.410156 12.480469 " clip-rule="nonzero"/></clipPath></defs><rect x="-7.5" width="90" fill="#ffffff" y="-7.5" height="89.999996" fill-opacity="1"/><rect x="-7.5" width="90" fill="#ffffff" y="-7.5" height="89.999996" fill-opacity="1"/><rect x="-7.5" width="90" fill="#ffffff" y="-7.5" height="89.999996" fill-opacity="1"/><path fill="#a8a7a7" d="M 22.5 60 C 18.355469 60 15.039062 63.355469 15.039062 67.5 C 15.039062 71.644531 18.355469 75 22.5 75 C 26.644531 75 30 71.644531 30 67.5 C 30 63.355469 26.644531 60 22.5 60 Z M 0 0 L 0 7.5 L 7.5 7.5 L 20.980469 35.945312 L 15.917969 45.132812 C 15.335938 46.21875 15 47.4375 15 48.75 C 15 52.894531 18.355469 56.25 22.5 56.25 L 67.5 56.25 L 67.5 48.75 L 24.09375 48.75 C 23.570312 48.75 23.15625 48.335938 23.15625 47.8125 C 23.15625 47.644531 23.195312 47.492188 23.269531 47.363281 L 26.625 41.25 L 54.5625 41.25 C 57.375 41.25 59.832031 39.695312 61.125 37.386719 L 74.53125 13.050781 C 74.832031 12.523438 75 11.90625 75 11.25 C 75 9.167969 73.3125 7.5 71.25 7.5 L 15.804688 7.5 L 12.242188 0 Z M 60 60 C 55.855469 60 52.539062 63.355469 52.539062 67.5 C 52.539062 71.644531 55.855469 75 60 75 C 64.144531 75 67.5 71.644531 67.5 67.5 C 67.5 63.355469 64.144531 60 60 60 Z M 60 60 " fill-opacity="1" fill-rule="nonzero"/><g clip-path="url(#3012b3d1c1)"><path fill="#ffffff" d="M 45.625 21.441406 C 45.390625 21.441406 45.199219 21.25 45.199219 21.015625 C 45.199219 21.015625 45.199219 13.769531 45.199219 13.769531 C 45.199219 13.0625 44.625 12.488281 43.917969 12.488281 L 39.652344 12.488281 C 38.945312 12.488281 38.371094 13.0625 38.371094 13.769531 L 38.371094 21.015625 C 38.371094 21.25 38.179688 21.441406 37.945312 21.441406 C 37.945312 21.441406 30.699219 21.441406 30.699219 21.441406 C 29.992188 21.441406 29.417969 22.015625 29.417969 22.722656 L 29.417969 26.988281 C 29.417969 27.695312 29.992188 28.269531 30.699219 28.269531 L 37.945312 28.269531 C 38.179688 28.269531 38.371094 28.460938 38.371094 28.695312 C 38.371094 28.695312 38.371094 35.941406 38.371094 35.941406 C 38.371094 36.648438 38.945312 37.21875 39.652344 37.21875 L 43.917969 37.21875 C 44.625 37.21875 45.199219 36.648438 45.199219 35.941406 L 45.199219 28.695312 C 45.199219 28.460938 45.390625 28.269531 45.625 28.269531 C 45.625 28.269531 52.867188 28.269531 52.867188 28.269531 C 53.578125 28.269531 54.148438 27.695312 54.148438 26.988281 L 54.148438 22.722656 C 54.148438 22.015625 53.578125 21.441406 52.867188 21.441406 Z M 45.625 21.441406 " fill-opacity="1" fill-rule="evenodd"/></g></svg>