<svg xmlns="http://www.w3.org/2000/svg" xmlns:xlink="http://www.w3.org/1999/xlink" width="100" zoomAndPan="magnify" viewBox="0 0 75 74.999997" height="100" preserveAspectRatio="xMidYMid meet" version="1.0"><defs><clipPath id="fc52aadead"><path d="M 26.347656 42.925781 L 48.847656 42.925781 L 48.847656 65.425781 L 26.347656 65.425781 Z M 26.347656 42.925781 " clip-rule="nonzero"/></clipPath></defs><rect x="-7.5" width="90" fill="#ffffff" y="-7.5" height="89.999996" fill-opacity="1"/><rect x="-7.5" width="90" fill="#ffffff" y="-7.5" height="89.999996" fill-opacity="1"/><path fill="#a8a7a7" d="M 17.84375 43.699219 C 19.15625 40.960938 19.011719 37.394531 17.4375 33.652344 C 14.660156 27.039062 9.878906 23.261719 5.804688 24.464844 C 1.742188 25.667969 0.0820312 31.242188 1.679688 38.335938 C 2.539062 42.167969 4.523438 45.15625 7.257812 46.75 C 8.570312 47.515625 9.972656 47.90625 11.347656 47.90625 C 12.023438 47.90625 12.695312 47.8125 13.34375 47.617188 C 15.316406 47.035156 16.914062 45.644531 17.84375 43.699219 " fill-opacity="1" fill-rule="nonzero"/><path fill="#a8a7a7" d="M 20.300781 27 C 21.925781 28.484375 23.890625 29.28125 25.894531 29.28125 C 26.105469 29.28125 26.316406 29.273438 26.53125 29.253906 C 28.761719 29.066406 30.785156 27.9375 32.230469 26.074219 C 34.246094 23.46875 34.941406 19.679688 34.179688 15.402344 C 32.832031 7.804688 28.6875 2.765625 24.101562 3.15625 C 19.535156 3.539062 16.457031 9.066406 16.441406 16.902344 C 16.433594 21.132812 17.800781 24.71875 20.300781 27 " fill-opacity="1" fill-rule="nonzero"/><path fill="#a8a7a7" d="M 69.179688 24.464844 C 65.105469 23.261719 60.324219 27.039062 57.542969 33.652344 C 55.972656 37.394531 55.828125 40.960938 57.136719 43.699219 C 58.066406 45.644531 59.667969 47.035156 61.640625 47.617188 C 62.289062 47.8125 62.957031 47.90625 63.636719 47.90625 C 65.011719 47.90625 66.414062 47.515625 67.726562 46.75 C 70.460938 45.15625 72.441406 42.167969 73.304688 38.335938 C 74.902344 31.242188 73.242188 25.667969 69.179688 24.464844 " fill-opacity="1" fill-rule="nonzero"/><path fill="#a8a7a7" d="M 48.453125 29.253906 C 48.664062 29.273438 48.878906 29.28125 49.089844 29.28125 C 51.089844 29.28125 53.058594 28.484375 54.683594 27 C 57.179688 24.71875 58.550781 21.132812 58.542969 16.902344 C 58.527344 9.066406 55.449219 3.539062 50.882812 3.15625 C 46.300781 2.769531 42.152344 7.804688 40.800781 15.402344 C 40.042969 19.679688 40.734375 23.46875 42.753906 26.074219 C 44.199219 27.9375 46.222656 29.066406 48.453125 29.253906 " fill-opacity="1" fill-rule="nonzero"/><path fill="#a8a7a7" d="M 54.78125 49.75 C 49.371094 45.789062 47.160156 39.730469 47.140625 39.667969 L 47.128906 39.644531 C 44.089844 32.234375 38.566406 31.933594 37.503906 31.957031 C 36.425781 31.9375 30.898438 32.234375 27.855469 39.652344 C 27.828125 39.71875 25.234375 46.207031 20.214844 49.746094 C 16.140625 52.617188 12.566406 58.054688 14.746094 64.707031 C 14.8125 64.925781 15.515625 67.214844 17.570312 69.164062 C 21.109375 72.523438 25.773438 72.164062 29.0625 71.273438 L 29.085938 71.265625 C 29.117188 71.257812 32.308594 70.257812 35.132812 69.546875 C 36.679688 69.160156 38.308594 69.160156 39.855469 69.546875 C 42.675781 70.257812 45.871094 71.257812 45.902344 71.265625 L 45.925781 71.273438 C 47.523438 71.707031 48.945312 71.886719 50.214844 71.886719 C 53.683594 71.886719 55.988281 70.523438 57.417969 69.164062 C 59.472656 67.214844 60.175781 64.925781 60.242188 64.707031 C 62.929688 56.507812 56.742188 51.1875 54.78125 49.75 " fill-opacity="1" fill-rule="nonzero"/><g clip-path="url(#fc52aadead)"><path fill="#ffffff" d="M 41.089844 51.074219 C 40.875 51.074219 40.703125 50.898438 40.703125 50.683594 C 40.703125 50.683594 40.703125 44.097656 40.703125 44.097656 C 40.703125 43.457031 40.179688 42.933594 39.539062 42.933594 L 35.660156 42.933594 C 35.015625 42.933594 34.496094 43.457031 34.496094 44.097656 L 34.496094 50.683594 C 34.496094 50.898438 34.320312 51.074219 34.105469 51.074219 C 34.105469 51.074219 27.519531 51.074219 27.519531 51.074219 C 26.878906 51.074219 26.359375 51.59375 26.359375 52.234375 L 26.359375 56.117188 C 26.359375 56.757812 26.878906 57.277344 27.519531 57.277344 L 34.105469 57.277344 C 34.320312 57.277344 34.496094 57.453125 34.496094 57.667969 C 34.496094 57.667969 34.496094 64.253906 34.496094 64.253906 C 34.496094 64.894531 35.015625 65.417969 35.660156 65.417969 L 39.539062 65.417969 C 40.179688 65.417969 40.703125 64.894531 40.703125 64.253906 L 40.703125 57.667969 C 40.703125 57.453125 40.875 57.277344 41.089844 57.277344 C 41.089844 57.277344 47.675781 57.277344 47.675781 57.277344 C 48.316406 57.277344 48.839844 56.757812 48.839844 56.117188 L 48.839844 52.234375 C 48.839844 51.59375 48.316406 51.074219 47.675781 51.074219 Z M 41.089844 51.074219 " fill-opacity="1" fill-rule="evenodd"/></g></svg>