<svg xmlns="http://www.w3.org/2000/svg" xmlns:xlink="http://www.w3.org/1999/xlink" width="100" zoomAndPan="magnify" viewBox="0 0 75 74.999997" height="100" preserveAspectRatio="xMidYMid meet" version="1.0"><defs><clipPath id="e21eaec31c"><path d="M 0 0.136719 L 75 0.136719 L 75 75 L 0 75 Z M 0 0.136719 " clip-rule="nonzero"/></clipPath></defs><rect x="-7.5" width="90" fill="#ffffff" y="-7.5" height="89.999996" fill-opacity="1"/><rect x="-7.5" width="90" fill="#4f5f54" y="-7.5" height="89.999996" fill-opacity="1"/><g clip-path="url(#e21eaec31c)"><path fill="#ffffff" d="M 37.515625 0.164062 C 16.792969 0.164062 0 17.019531 0 37.816406 C 0 56.496094 13.578125 72.011719 31.34375 74.945312 L 31.34375 49.421875 L 21.796875 49.421875 L 21.796875 38.238281 L 31.34375 38.238281 L 31.34375 30.121094 C 31.34375 21.320312 38.457031 15.355469 47.226562 15.355469 C 51.125 15.355469 53.5625 15.941406 53.5625 15.941406 L 53.5625 25.332031 L 47.226562 25.332031 C 44.597656 25.332031 42.453125 27.480469 42.453125 30.121094 L 42.453125 38.238281 L 52.683594 38.238281 L 51.257812 49.421875 L 42.453125 49.421875 L 42.453125 75.109375 C 60.804688 72.664062 74.96875 56.886719 74.96875 37.816406 C 75 17.019531 58.207031 0.164062 37.515625 0.164062 Z M 37.515625 0.164062 " fill-opacity="1" fill-rule="nonzero"/></g></svg>