<svg xmlns="http://www.w3.org/2000/svg" xmlns:xlink="http://www.w3.org/1999/xlink" width="100" zoomAndPan="magnify" viewBox="0 0 75 74.999997" height="100" preserveAspectRatio="xMidYMid meet" version="1.0"><defs><clipPath id="bf8d5407d0"><path d="M 7.5 0 L 69 0 L 69 75 L 7.5 75 Z M 7.5 0 " clip-rule="nonzero"/></clipPath></defs><rect x="-7.5" width="90" fill="#ffffff" y="-7.5" height="89.999996" fill-opacity="1"/><rect x="-7.5" width="90" fill="#ffffff" y="-7.5" height="89.999996" fill-opacity="1"/><g clip-path="url(#bf8d5407d0)"><path fill="#a8a7a7" d="M 38.25 0.00390625 L 7.5 13.636719 L 7.5 34.089844 C 7.5 53.027344 20.601562 70.683594 38.25 74.996094 C 55.898438 70.683594 69 53.027344 69 34.089844 L 69 13.636719 Z M 38.25 37.464844 L 62.167969 37.464844 C 60.355469 51.511719 50.976562 64.019531 38.25 67.925781 L 38.25 37.5 L 14.332031 37.5 L 14.332031 18.070312 L 38.25 7.46875 Z M 38.25 37.464844 " fill-opacity="1" fill-rule="nonzero"/></g></svg>